<svg id="visual" viewBox="0 0 1600 200" width="1600" height="200" xmlns="http://www.w3.org/2000/svg" xmlns:xlink="http://www.w3.org/1999/xlink" version="1.1"><rect x="0" y="0" width="1600" height="200" fill="#202731"></rect><path d="M0 82L20.5 79.2C41 76.3 82 70.7 123 72.3C164 74 205 83 246 85.7C287 88.3 328 84.7 369 81.7C410 78.7 451 76.3 492 78.5C533 80.7 574 87.3 615 88.8C656 90.3 697 86.7 738.2 88.8C779.3 91 820.7 99 861.8 102C903 105 944 103 985 103.8C1026 104.7 1067 108.3 1108 103.3C1149 98.3 1190 84.7 1231 84.7C1272 84.7 1313 98.3 1354 97.2C1395 96 1436 80 1477 77.2C1518 74.3 1559 84.7 1579.5 89.8L1600 95L1600 0L1579.5 0C1559 0 1518 0 1477 0C1436 0 1395 0 1354 0C1313 0 1272 0 1231 0C1190 0 1149 0 1108 0C1067 0 1026 0 985 0C944 0 903 0 861.8 0C820.7 0 779.3 0 738.2 0C697 0 656 0 615 0C574 0 533 0 492 0C451 0 410 0 369 0C328 0 287 0 246 0C205 0 164 0 123 0C82 0 41 0 20.5 0L0 0Z" fill="#31ffc7"></path><path d="M0 86L20.5 82.2C41 78.3 82 70.7 123 68.3C164 66 205 69 246 72.8C287 76.7 328 81.3 369 80.5C410 79.7 451 73.3 492 73.8C533 74.3 574 81.7 615 85.5C656 89.3 697 89.7 738.2 83.5C779.3 77.3 820.7 64.7 861.8 62.2C903 59.7 944 67.3 985 68.5C1026 69.7 1067 64.3 1108 64.2C1149 64 1190 69 1231 68.7C1272 68.3 1313 62.7 1354 59.8C1395 57 1436 57 1477 61C1518 65 1559 73 1579.5 77L1600 81L1600 0L1579.5 0C1559 0 1518 0 1477 0C1436 0 1395 0 1354 0C1313 0 1272 0 1231 0C1190 0 1149 0 1108 0C1067 0 1026 0 985 0C944 0 903 0 861.8 0C820.7 0 779.3 0 738.2 0C697 0 656 0 615 0C574 0 533 0 492 0C451 0 410 0 369 0C328 0 287 0 246 0C205 0 164 0 123 0C82 0 41 0 20.5 0L0 0Z" fill="#3bda99"></path><path d="M0 56L20.5 53C41 50 82 44 123 45.5C164 47 205 56 246 56.7C287 57.3 328 49.7 369 48.2C410 46.7 451 51.3 492 52C533 52.7 574 49.3 615 52.2C656 55 697 64 738.2 62.7C779.3 61.3 820.7 49.7 861.8 43.8C903 38 944 38 985 42.5C1026 47 1067 56 1108 57.8C1149 59.7 1190 54.3 1231 51.5C1272 48.7 1313 48.3 1354 49.5C1395 50.7 1436 53.3 1477 56.7C1518 60 1559 64 1579.5 66L1600 68L1600 0L1579.5 0C1559 0 1518 0 1477 0C1436 0 1395 0 1354 0C1313 0 1272 0 1231 0C1190 0 1149 0 1108 0C1067 0 1026 0 985 0C944 0 903 0 861.8 0C820.7 0 779.3 0 738.2 0C697 0 656 0 615 0C574 0 533 0 492 0C451 0 410 0 369 0C328 0 287 0 246 0C205 0 164 0 123 0C82 0 41 0 20.5 0L0 0Z" fill="#3dc480"></path><path d="M0 38L20.5 38.8C41 39.7 82 41.3 123 41.3C164 41.3 205 39.7 246 37.2C287 34.7 328 31.3 369 32.3C410 33.3 451 38.7 492 41.3C533 44 574 44 615 42.7C656 41.3 697 38.7 738.2 40C779.3 41.3 820.7 46.7 861.8 45.5C903 44.3 944 36.7 985 36C1026 35.3 1067 41.7 1108 41.7C1149 41.7 1190 35.3 1231 34.8C1272 34.3 1313 39.7 1354 41.8C1395 44 1436 43 1477 39.7C1518 36.3 1559 30.7 1579.5 27.8L1600 25L1600 0L1579.5 0C1559 0 1518 0 1477 0C1436 0 1395 0 1354 0C1313 0 1272 0 1231 0C1190 0 1149 0 1108 0C1067 0 1026 0 985 0C944 0 903 0 861.8 0C820.7 0 779.3 0 738.2 0C697 0 656 0 615 0C574 0 533 0 492 0C451 0 410 0 369 0C328 0 287 0 246 0C205 0 164 0 123 0C82 0 41 0 20.5 0L0 0Z" fill="#3bda99"></path><path d="M0 17L20.5 19.2C41 21.3 82 25.7 123 25.5C164 25.3 205 20.7 246 20C287 19.3 328 22.7 369 25C410 27.3 451 28.7 492 29.2C533 29.7 574 29.3 615 26.7C656 24 697 19 738.2 16C779.3 13 820.7 12 861.8 13.3C903 14.7 944 18.3 985 18.5C1026 18.7 1067 15.3 1108 15.5C1149 15.7 1190 19.3 1231 22.3C1272 25.3 1313 27.7 1354 28.3C1395 29 1436 28 1477 28.5C1518 29 1559 31 1579.5 32L1600 33L1600 0L1579.5 0C1559 0 1518 0 1477 0C1436 0 1395 0 1354 0C1313 0 1272 0 1231 0C1190 0 1149 0 1108 0C1067 0 1026 0 985 0C944 0 903 0 861.8 0C820.7 0 779.3 0 738.2 0C697 0 656 0 615 0C574 0 533 0 492 0C451 0 410 0 369 0C328 0 287 0 246 0C205 0 164 0 123 0C82 0 41 0 20.5 0L0 0Z" fill="#31ffc7"></path></svg>