<svg id="visual" viewBox="0 0 1600 200" width="1600" height="200" xmlns="http://www.w3.org/2000/svg" xmlns:xlink="http://www.w3.org/1999/xlink" version="1.1"><rect x="0" y="0" width="1600" height="200" fill="#3d2750"></rect><path d="M0 111L12.7 117C25.3 123 50.7 135 76 132C101.3 129 126.7 111 152.2 109.5C177.7 108 203.3 123 228.8 126C254.3 129 279.7 120 305 117.8C330.3 115.7 355.7 120.3 381 118.5C406.3 116.7 431.7 108.3 457 110.3C482.3 112.3 507.7 124.7 533.2 126.2C558.7 127.7 584.3 118.3 609.8 110.3C635.3 102.3 660.7 95.7 686 98.2C711.3 100.7 736.7 112.3 762 120.7C787.3 129 812.7 134 838 128.2C863.3 122.3 888.7 105.7 914 102.3C939.3 99 964.7 109 990.2 109.5C1015.7 110 1041.3 101 1066.8 97.2C1092.3 93.3 1117.7 94.7 1143 98.8C1168.3 103 1193.7 110 1219 119.2C1244.3 128.3 1269.7 139.7 1295 138.3C1320.3 137 1345.7 123 1371.2 116.2C1396.7 109.3 1422.3 109.7 1447.8 114.5C1473.3 119.3 1498.7 128.7 1524 134.2C1549.3 139.7 1574.7 141.3 1587.3 142.2L1600 143L1600 201L1587.3 201C1574.7 201 1549.3 201 1524 201C1498.7 201 1473.3 201 1447.8 201C1422.3 201 1396.7 201 1371.2 201C1345.7 201 1320.3 201 1295 201C1269.7 201 1244.3 201 1219 201C1193.7 201 1168.3 201 1143 201C1117.7 201 1092.3 201 1066.8 201C1041.3 201 1015.7 201 990.2 201C964.7 201 939.3 201 914 201C888.7 201 863.3 201 838 201C812.7 201 787.3 201 762 201C736.7 201 711.3 201 686 201C660.7 201 635.3 201 609.8 201C584.3 201 558.7 201 533.2 201C507.7 201 482.3 201 457 201C431.7 201 406.3 201 381 201C355.7 201 330.3 201 305 201C279.7 201 254.3 201 228.8 201C203.3 201 177.7 201 152.2 201C126.7 201 101.3 201 76 201C50.7 201 25.3 201 12.7 201L0 201Z" fill="#202731" stroke-linecap="round" stroke-linejoin="miter"></path></svg>