<svg id="visual" viewBox="0 0 1600 200" width="1600" height="200" xmlns="http://www.w3.org/2000/svg" xmlns:xlink="http://www.w3.org/1999/xlink" version="1.1"><rect x="0" y="0" width="1600" height="200" fill="#202731"></rect><path d="M0 120L13.3 122C26.7 124 53.3 128 80 135.3C106.7 142.7 133.3 153.3 160 150.3C186.7 147.3 213.3 130.7 240 128.7C266.7 126.7 293.3 139.3 320 148C346.7 156.7 373.3 161.3 400 159.3C426.7 157.3 453.3 148.7 480 143.8C506.7 139 533.3 138 560 131.8C586.7 125.7 613.3 114.3 640 109.3C666.7 104.3 693.3 105.7 720 114.8C746.7 124 773.3 141 800 146.3C826.7 151.7 853.3 145.3 880 143.3C906.7 141.3 933.3 143.7 960 148.2C986.7 152.7 1013.3 159.3 1040 154.8C1066.7 150.3 1093.3 134.7 1120 126.5C1146.7 118.3 1173.3 117.7 1200 123.2C1226.7 128.7 1253.3 140.3 1280 148C1306.7 155.7 1333.3 159.3 1360 150.3C1386.7 141.3 1413.3 119.7 1440 114.8C1466.7 110 1493.3 122 1520 124.3C1546.7 126.7 1573.3 119.3 1586.7 115.7L1600 112L1600 201L1586.7 201C1573.3 201 1546.7 201 1520 201C1493.3 201 1466.7 201 1440 201C1413.3 201 1386.7 201 1360 201C1333.3 201 1306.7 201 1280 201C1253.3 201 1226.7 201 1200 201C1173.3 201 1146.7 201 1120 201C1093.3 201 1066.7 201 1040 201C1013.3 201 986.7 201 960 201C933.3 201 906.7 201 880 201C853.3 201 826.7 201 800 201C773.3 201 746.7 201 720 201C693.3 201 666.7 201 640 201C613.3 201 586.7 201 560 201C533.3 201 506.7 201 480 201C453.3 201 426.7 201 400 201C373.3 201 346.7 201 320 201C293.3 201 266.7 201 240 201C213.3 201 186.7 201 160 201C133.3 201 106.7 201 80 201C53.3 201 26.7 201 13.3 201L0 201Z" fill="#3d2750" stroke-linecap="round" stroke-linejoin="miter"></path></svg>