<svg width="1024" height="768" viewBox="0 0 1024 768" xmlns="http://www.w3.org/2000/svg" xmlns:xlink="http://www.w3.org/1999/xlink">
    <path id="Path" fill="#59187d" stroke="none" d="M 0 46.719971 L 15.573334 51.840027 C 31.093332 56.960022 62.239998 67.200012 93.226669 69.76001 C 124.26667 72.320007 155.199997 67.200012 186.240005 74.880005 C 217.226654 82.559998 248.373337 103.039978 279.359985 112 C 310.399994 120.960022 341.333344 118.400024 372.373352 119.679993 C 403.359985 120.960022 434.506683 126.080017 465.493317 127.359985 C 496.533325 128.640015 527.466675 126.080017 558.506653 122.23999 C 589.493347 118.400024 620.639954 113.280029 651.626709 112 C 682.666687 110.719971 713.599976 113.280029 744.639954 106.880005 C 775.626709 100.47998 806.773315 85.119995 837.76001 74.880005 C 868.799988 64.640015 899.733337 59.52002 930.773315 60.799988 C 961.76001 62.080017 992.906616 69.76001 1008.426697 73.599976 L 1024 77.440002 L 1024 0 L 1008.426697 0 C 992.906616 0 961.76001 0 930.773315 0 C 899.733337 0 868.799988 0 837.76001 0 C 806.773315 0 775.626709 0 744.639954 0 C 713.599976 0 682.666687 0 651.626709 0 C 620.639954 0 589.493347 0 558.506653 0 C 527.466675 0 496.533325 0 465.493317 0 C 434.506683 0 403.359985 0 372.373352 0 C 341.333344 0 310.399994 0 279.359985 0 C 248.373337 0 217.226654 0 186.240005 0 C 155.199997 0 124.26667 0 93.226669 0 C 62.239998 0 31.093332 0 15.573334 0 L 0 0 Z"/>
    <path id="path1" fill="#00ffec" stroke="none" d="M 0 115.840027 L 15.573334 120.960022 C 31.093332 126.080017 62.239998 136.320007 93.226669 151.679993 C 124.26667 167.039978 155.199997 187.52002 186.240005 199.039978 C 217.226654 210.559998 248.373337 213.119995 279.359985 220.799988 C 310.399994 228.47998 341.333344 241.280029 372.373352 240 C 403.359985 238.719971 434.506683 223.359985 465.493317 222.080017 C 496.533325 220.799988 527.466675 233.599976 558.506653 238.719971 C 589.493347 243.840027 620.639954 241.280029 651.626709 228.47998 C 682.666687 215.679993 713.599976 192.640015 744.639954 191.359985 C 775.626709 190.080017 806.773315 210.559998 837.76001 214.400024 C 868.799988 218.23999 899.733337 205.440002 930.773315 201.599976 C 961.76001 197.76001 992.906616 202.880005 1008.426697 205.440002 L 1024 208 L 1024 76.159973 L 1008.426697 72.320007 C 992.906616 68.47998 961.76001 60.799988 930.773315 59.52002 C 899.733337 58.23999 868.799988 63.359985 837.76001 73.599976 C 806.773315 83.840027 775.626709 99.200012 744.639954 105.599976 C 713.599976 112 682.666687 109.440002 651.626709 110.719971 C 620.639954 112 589.493347 117.119995 558.506653 120.960022 C 527.466675 124.799988 496.533325 127.359985 465.493317 126.080017 C 434.506683 124.799988 403.359985 119.679993 372.373352 118.400024 C 341.333344 117.119995 310.399994 119.679993 279.359985 110.719971 C 248.373337 101.76001 217.226654 81.280029 186.240005 73.599976 C 155.199997 65.919983 124.26667 71.039978 93.226669 68.47998 C 62.239998 65.919983 31.093332 55.679993 15.573334 50.559998 L 0 45.440002 Z"/>
    <path id="path2" fill="#ff634d" stroke="none" d="M 0 430.720001 L 15.573334 417.920013 C 31.093332 405.119995 62.239998 379.519989 93.226669 375.679993 C 124.26667 371.839996 155.199997 389.76001 186.240005 385.920013 C 217.226654 382.079987 248.373337 356.480011 279.359985 355.200012 C 310.399994 353.920013 341.333344 376.959991 372.373352 394.880005 C 403.359985 412.799988 434.506683 425.600006 465.493317 432 C 496.533325 438.399994 527.466675 438.399994 558.506653 434.559998 C 589.493347 430.720001 620.639954 423.040009 651.626709 423.040009 C 682.666687 423.040009 713.599976 430.720001 744.639954 437.119995 C 775.626709 443.519989 806.773315 448.640015 837.76001 456.320007 C 868.799988 464 899.733337 474.23999 930.773315 452.480011 C 961.76001 430.720001 992.906616 376.959991 1008.426697 350.079987 L 1024 323.200012 L 1024 206.719971 L 1008.426697 204.159973 C 992.906616 201.599976 961.76001 196.47998 930.773315 200.320007 C 899.733337 204.159973 868.799988 216.960022 837.76001 213.119995 C 806.773315 209.280029 775.626709 188.799988 744.639954 190.080017 C 713.599976 191.359985 682.666687 214.400024 651.626709 227.200012 C 620.639954 240 589.493347 242.559998 558.506653 237.440002 C 527.466675 232.320007 496.533325 219.52002 465.493317 220.799988 C 434.506683 222.080017 403.359985 237.440002 372.373352 238.719971 C 341.333344 240 310.399994 227.200012 279.359985 219.52002 C 248.373337 211.840027 217.226654 209.280029 186.240005 197.76001 C 155.199997 186.23999 124.26667 165.76001 93.226669 150.400024 C 62.239998 135.039978 31.093332 124.799988 15.573334 119.679993 L 0 114.559998 Z"/>
    <path id="path3" fill="#00e4b7" stroke="none" d="M 0 615.039978 L 15.573334 592 C 31.093332 568.960022 62.239998 522.880005 93.226669 512.640015 C 124.26667 502.399994 155.199997 528 186.240005 525.440002 C 217.226654 522.880005 248.373337 492.160004 279.359985 484.480011 C 310.399994 476.799988 341.333344 492.160004 372.373352 504.959991 C 403.359985 517.76001 434.506683 528 465.493317 545.919983 C 496.533325 563.839966 527.466675 589.440002 558.506653 593.280029 C 589.493347 597.119995 620.639954 579.200012 651.626709 574.080017 C 682.666687 568.960022 713.599976 576.640015 744.639954 589.440002 C 775.626709 602.23999 806.773315 620.160034 837.76001 627.839966 C 868.799988 635.52002 899.733337 632.960022 930.773315 602.23999 C 961.76001 571.52002 992.906616 512.640015 1008.426697 483.200012 L 1024 453.76001 L 1024 321.920013 L 1008.426697 348.799988 C 992.906616 375.679993 961.76001 429.440002 930.773315 451.200012 C 899.733337 472.959991 868.799988 462.720001 837.76001 455.040009 C 806.773315 447.359985 775.626709 442.23999 744.639954 435.839996 C 713.599976 429.440002 682.666687 421.76001 651.626709 421.76001 C 620.639954 421.76001 589.493347 429.440002 558.506653 433.279999 C 527.466675 437.119995 496.533325 437.119995 465.493317 430.720001 C 434.506683 424.320007 403.359985 411.519989 372.373352 393.600006 C 341.333344 375.679993 310.399994 352.640015 279.359985 353.920013 C 248.373337 355.200012 217.226654 380.799988 186.240005 384.640015 C 155.199997 388.480011 124.26667 370.559998 93.226669 374.399994 C 62.239998 378.23999 31.093332 403.839996 15.573334 416.640015 L 0 429.440002 Z"/>
    <path id="path4" fill="#59187d" stroke="none" d="M 0 768.640015 L 15.573334 768.640015 C 31.093332 768.640015 62.239998 768.640015 93.226669 768.640015 C 124.26667 768.640015 155.199997 768.640015 186.240005 768.640015 C 217.226654 768.640015 248.373337 768.640015 279.359985 768.640015 C 310.399994 768.640015 341.333344 768.640015 372.373352 768.640015 C 403.359985 768.640015 434.506683 768.640015 465.493317 768.640015 C 496.533325 768.640015 527.466675 768.640015 558.506653 768.640015 C 589.493347 768.640015 620.639954 768.640015 651.626709 768.640015 C 682.666687 768.640015 713.599976 768.640015 744.639954 768.640015 C 775.626709 768.640015 806.773315 768.640015 837.76001 768.640015 C 868.799988 768.640015 899.733337 768.640015 930.773315 768.640015 C 961.76001 768.640015 992.906616 768.640015 1008.426697 768.640015 L 1024 768.640015 L 1024 452.480011 L 1008.426697 481.920013 C 992.906616 511.359985 961.76001 570.23999 930.773315 600.960022 C 899.733337 631.679993 868.799988 634.23999 837.76001 626.559998 C 806.773315 618.880005 775.626709 600.960022 744.639954 588.160034 C 713.599976 575.359985 682.666687 567.679993 651.626709 572.799988 C 620.639954 577.919983 589.493347 595.839966 558.506653 592 C 527.466675 588.160034 496.533325 562.559998 465.493317 544.640015 C 434.506683 526.719971 403.359985 516.47998 372.373352 503.679993 C 341.333344 490.880005 310.399994 475.519989 279.359985 483.200012 C 248.373337 490.880005 217.226654 521.599976 186.240005 524.160034 C 155.199997 526.719971 124.26667 501.119995 93.226669 511.359985 C 62.239998 521.599976 31.093332 567.679993 15.573334 590.719971 L 0 613.76001 Z"/>
</svg>
