<svg xmlns="http://www.w3.org/2000/svg" xmlns:xlink="http://www.w3.org/1999/xlink">
    <path id="Path" fill="#59187d" stroke="none" d="M 0 73 L 29.200001 81 C 58.299999 89 116.699997 105 174.800003 109 C 233 113 291 105 349.200012 117 C 407.299988 129 465.700012 161 523.799988 175 C 582 189 640 185 698.200012 187 C 756.299988 189 814.700012 197 872.799988 199 C 931 201 989 197 1047.199951 191 C 1105.300049 185 1163.699951 177 1221.800049 175 C 1280 173 1338 177 1396.199951 167 C 1454.300049 157 1512.699951 133 1570.800049 117 C 1629 101 1687 93 1745.199951 95 C 1803.300049 97 1861.699951 109 1890.800049 115 L 1920 121 L 1920 0 L 1890.800049 0 C 1861.699951 0 1803.300049 0 1745.199951 0 C 1687 0 1629 0 1570.800049 0 C 1512.699951 0 1454.300049 0 1396.199951 0 C 1338 0 1280 0 1221.800049 0 C 1163.699951 0 1105.300049 0 1047.199951 0 C 989 0 931 0 872.799988 0 C 814.700012 0 756.299988 0 698.200012 0 C 640 0 582 0 523.799988 0 C 465.700012 0 407.299988 0 349.200012 0 C 291 0 233 0 174.800003 0 C 116.699997 0 58.299999 0 29.200001 0 L 0 0 Z"/>
    <path id="path1" fill="#00ffec" stroke="none" d="M 0 181 L 29.200001 189 C 58.299999 197 116.699997 213 174.800003 237 C 233 261 291 293 349.200012 311 C 407.299988 329 465.700012 333 523.799988 345 C 582 357 640 377 698.200012 375 C 756.299988 373 814.700012 349 872.799988 347 C 931 345 989 365 1047.199951 373 C 1105.300049 381 1163.699951 377 1221.800049 357 C 1280 337 1338 301 1396.199951 299 C 1454.300049 297 1512.699951 329 1570.800049 335 C 1629 341 1687 321 1745.199951 315 C 1803.300049 309 1861.699951 317 1890.800049 321 L 1920 325 L 1920 119 L 1890.800049 113 C 1861.699951 107 1803.300049 95 1745.199951 93 C 1687 91 1629 99 1570.800049 115 C 1512.699951 131 1454.300049 155 1396.199951 165 C 1338 175 1280 171 1221.800049 173 C 1163.699951 175 1105.300049 183 1047.199951 189 C 989 195 931 199 872.799988 197 C 814.700012 195 756.299988 187 698.200012 185 C 640 183 582 187 523.799988 173 C 465.700012 159 407.299988 127 349.200012 115 C 291 103 233 111 174.800003 107 C 116.699997 103 58.299999 87 29.200001 79 L 0 71 Z"/>
    <path id="path2" fill="#ff634d" stroke="none" d="M 0 673 L 29.200001 653 C 58.299999 633 116.699997 593 174.800003 587 C 233 581 291 609 349.200012 603 C 407.299988 597 465.700012 557 523.799988 555 C 582 553 640 589 698.200012 617 C 756.299988 645 814.700012 665 872.799988 675 C 931 685 989 685 1047.199951 679 C 1105.300049 673 1163.699951 661 1221.800049 661 C 1280 661 1338 673 1396.199951 683 C 1454.300049 693 1512.699951 701 1570.800049 713 C 1629 725 1687 741 1745.199951 707 C 1803.300049 673 1861.699951 589 1890.800049 547 L 1920 505 L 1920 323 L 1890.800049 319 C 1861.699951 315 1803.300049 307 1745.199951 313 C 1687 319 1629 339 1570.800049 333 C 1512.699951 327 1454.300049 295 1396.199951 297 C 1338 299 1280 335 1221.800049 355 C 1163.699951 375 1105.300049 379 1047.199951 371 C 989 363 931 343 872.799988 345 C 814.700012 347 756.299988 371 698.200012 373 C 640 375 582 355 523.799988 343 C 465.700012 331 407.299988 327 349.200012 309 C 291 291 233 259 174.800003 235 C 116.699997 211 58.299999 195 29.200001 187 L 0 179 Z"/>
    <path id="path3" fill="#00e4b7" stroke="none" d="M 0 961 L 29.200001 925 C 58.299999 889 116.699997 817 174.800003 801 C 233 785 291 825 349.200012 821 C 407.299988 817 465.700012 769 523.799988 757 C 582 745 640 769 698.200012 789 C 756.299988 809 814.700012 825 872.799988 853 C 931 881 989 921 1047.199951 927 C 1105.300049 933 1163.699951 905 1221.800049 897 C 1280 889 1338 901 1396.199951 921 C 1454.300049 941 1512.699951 969 1570.800049 981 C 1629 993 1687 989 1745.199951 941 C 1803.300049 893 1861.699951 801 1890.800049 755 L 1920 709 L 1920 503 L 1890.800049 545 C 1861.699951 587 1803.300049 671 1745.199951 705 C 1687 739 1629 723 1570.800049 711 C 1512.699951 699 1454.300049 691 1396.199951 681 C 1338 671 1280 659 1221.800049 659 C 1163.699951 659 1105.300049 671 1047.199951 677 C 989 683 931 683 872.799988 673 C 814.700012 663 756.299988 643 698.200012 615 C 640 587 582 551 523.799988 553 C 465.700012 555 407.299988 595 349.200012 601 C 291 607 233 579 174.800003 585 C 116.699997 591 58.299999 631 29.200001 651 L 0 671 Z"/>
    <path id="path4" fill="#59187d" stroke="none" d="M 0 1201 L 29.200001 1201 C 58.299999 1201 116.699997 1201 174.800003 1201 C 233 1201 291 1201 349.200012 1201 C 407.299988 1201 465.700012 1201 523.799988 1201 C 582 1201 640 1201 698.200012 1201 C 756.299988 1201 814.700012 1201 872.799988 1201 C 931 1201 989 1201 1047.199951 1201 C 1105.300049 1201 1163.699951 1201 1221.800049 1201 C 1280 1201 1338 1201 1396.199951 1201 C 1454.300049 1201 1512.699951 1201 1570.800049 1201 C 1629 1201 1687 1201 1745.199951 1201 C 1803.300049 1201 1861.699951 1201 1890.800049 1201 L 1920 1201 L 1920 707 L 1890.800049 753 C 1861.699951 799 1803.300049 891 1745.199951 939 C 1687 987 1629 991 1570.800049 979 C 1512.699951 967 1454.300049 939 1396.199951 919 C 1338 899 1280 887 1221.800049 895 C 1163.699951 903 1105.300049 931 1047.199951 925 C 989 919 931 879 872.799988 851 C 814.700012 823 756.299988 807 698.200012 787 C 640 767 582 743 523.799988 755 C 465.700012 767 407.299988 815 349.200012 819 C 291 823 233 783 174.800003 799 C 116.699997 815 58.299999 887 29.200001 923 L 0 959 Z"/>
</svg>
